<mxfile host="app.diagrams.net" modified="2024-05-25T14:48:44.042Z" agent="Mozilla/5.0 (Windows NT 10.0; Win64; x64) AppleWebKit/537.36 (KHTML, like Gecko) Chrome/125.0.0.0 Safari/537.36 Edg/125.0.0.0" etag="rq4HuLjK_m2_0WYSKRcR" version="24.4.8" type="device">
  <diagram name="Page-1" id="js7AcAJWkug1fJw1Gztb">
    <mxGraphModel dx="746" dy="552" grid="1" gridSize="10" guides="1" tooltips="1" connect="1" arrows="1" fold="1" page="1" pageScale="1" pageWidth="850" pageHeight="1100" math="0" shadow="0">
      <root>
        <mxCell id="0" />
        <mxCell id="1" parent="0" />
        <mxCell id="67p3772FqBmkvbW1Jcc8-1" value="Bug And TestCases Management Systems&amp;nbsp;" style="rounded=0;whiteSpace=wrap;html=1;" vertex="1" parent="1">
          <mxGeometry x="320" y="240" width="120" height="60" as="geometry" />
        </mxCell>
        <mxCell id="67p3772FqBmkvbW1Jcc8-2" value="Admin" style="rounded=1;whiteSpace=wrap;html=1;" vertex="1" parent="1">
          <mxGeometry x="320" y="80" width="120" height="40" as="geometry" />
        </mxCell>
        <mxCell id="67p3772FqBmkvbW1Jcc8-3" value="Manager" style="rounded=1;whiteSpace=wrap;html=1;" vertex="1" parent="1">
          <mxGeometry x="100" y="410" width="120" height="40" as="geometry" />
        </mxCell>
        <mxCell id="67p3772FqBmkvbW1Jcc8-4" value="Developer" style="rounded=1;whiteSpace=wrap;html=1;" vertex="1" parent="1">
          <mxGeometry x="270" y="440" width="120" height="40" as="geometry" />
        </mxCell>
        <mxCell id="67p3772FqBmkvbW1Jcc8-5" value="Tester" style="rounded=1;whiteSpace=wrap;html=1;" vertex="1" parent="1">
          <mxGeometry x="425" y="440" width="120" height="40" as="geometry" />
        </mxCell>
        <mxCell id="67p3772FqBmkvbW1Jcc8-6" value="Analyst" style="rounded=1;whiteSpace=wrap;html=1;" vertex="1" parent="1">
          <mxGeometry x="570" y="400" width="120" height="40" as="geometry" />
        </mxCell>
        <mxCell id="67p3772FqBmkvbW1Jcc8-7" value="Admin" style="shape=umlActor;verticalLabelPosition=bottom;verticalAlign=top;html=1;outlineConnect=0;" vertex="1" parent="1">
          <mxGeometry x="40" y="240" width="30" height="60" as="geometry" />
        </mxCell>
        <mxCell id="67p3772FqBmkvbW1Jcc8-8" value="DataBases" style="shape=cylinder3;whiteSpace=wrap;html=1;boundedLbl=1;backgroundOutline=1;size=15;" vertex="1" parent="1">
          <mxGeometry x="650" y="230" width="60" height="80" as="geometry" />
        </mxCell>
        <mxCell id="67p3772FqBmkvbW1Jcc8-9" value="" style="endArrow=classic;html=1;rounded=0;exitX=0.5;exitY=1;exitDx=0;exitDy=0;entryX=0.5;entryY=0;entryDx=0;entryDy=0;" edge="1" parent="1" source="67p3772FqBmkvbW1Jcc8-2" target="67p3772FqBmkvbW1Jcc8-1">
          <mxGeometry width="50" height="50" relative="1" as="geometry">
            <mxPoint x="360" y="310" as="sourcePoint" />
            <mxPoint x="410" y="260" as="targetPoint" />
          </mxGeometry>
        </mxCell>
        <mxCell id="67p3772FqBmkvbW1Jcc8-10" value="" style="endArrow=classic;html=1;rounded=0;exitX=0.667;exitY=0.008;exitDx=0;exitDy=0;exitPerimeter=0;entryX=0;entryY=1;entryDx=0;entryDy=0;" edge="1" parent="1" source="67p3772FqBmkvbW1Jcc8-3" target="67p3772FqBmkvbW1Jcc8-1">
          <mxGeometry width="50" height="50" relative="1" as="geometry">
            <mxPoint x="360" y="310" as="sourcePoint" />
            <mxPoint x="410" y="260" as="targetPoint" />
          </mxGeometry>
        </mxCell>
        <mxCell id="67p3772FqBmkvbW1Jcc8-11" value="Systems" style="edgeLabel;html=1;align=center;verticalAlign=middle;resizable=0;points=[];" vertex="1" connectable="0" parent="67p3772FqBmkvbW1Jcc8-10">
          <mxGeometry x="-0.0053" y="5" relative="1" as="geometry">
            <mxPoint as="offset" />
          </mxGeometry>
        </mxCell>
        <mxCell id="67p3772FqBmkvbW1Jcc8-12" value="" style="endArrow=classic;html=1;rounded=0;exitX=0.5;exitY=0;exitDx=0;exitDy=0;entryX=0.5;entryY=1;entryDx=0;entryDy=0;" edge="1" parent="1" source="67p3772FqBmkvbW1Jcc8-4" target="67p3772FqBmkvbW1Jcc8-1">
          <mxGeometry width="50" height="50" relative="1" as="geometry">
            <mxPoint x="360" y="310" as="sourcePoint" />
            <mxPoint x="410" y="260" as="targetPoint" />
          </mxGeometry>
        </mxCell>
        <mxCell id="67p3772FqBmkvbW1Jcc8-13" value="Systems" style="edgeLabel;html=1;align=center;verticalAlign=middle;resizable=0;points=[];" vertex="1" connectable="0" parent="67p3772FqBmkvbW1Jcc8-12">
          <mxGeometry x="-0.0063" y="2" relative="1" as="geometry">
            <mxPoint as="offset" />
          </mxGeometry>
        </mxCell>
        <mxCell id="67p3772FqBmkvbW1Jcc8-14" value="" style="endArrow=classic;html=1;rounded=0;exitX=0.414;exitY=-0.058;exitDx=0;exitDy=0;exitPerimeter=0;entryX=0.75;entryY=1;entryDx=0;entryDy=0;" edge="1" parent="1" source="67p3772FqBmkvbW1Jcc8-5" target="67p3772FqBmkvbW1Jcc8-1">
          <mxGeometry width="50" height="50" relative="1" as="geometry">
            <mxPoint x="360" y="310" as="sourcePoint" />
            <mxPoint x="410" y="260" as="targetPoint" />
          </mxGeometry>
        </mxCell>
        <mxCell id="67p3772FqBmkvbW1Jcc8-15" value="Text" style="edgeLabel;html=1;align=center;verticalAlign=middle;resizable=0;points=[];" vertex="1" connectable="0" parent="67p3772FqBmkvbW1Jcc8-14">
          <mxGeometry x="-0.0133" y="1" relative="1" as="geometry">
            <mxPoint as="offset" />
          </mxGeometry>
        </mxCell>
        <mxCell id="67p3772FqBmkvbW1Jcc8-16" value="Systems" style="edgeLabel;html=1;align=center;verticalAlign=middle;resizable=0;points=[];" vertex="1" connectable="0" parent="67p3772FqBmkvbW1Jcc8-14">
          <mxGeometry x="0.0219" y="5" relative="1" as="geometry">
            <mxPoint as="offset" />
          </mxGeometry>
        </mxCell>
        <mxCell id="67p3772FqBmkvbW1Jcc8-17" value="" style="endArrow=classic;html=1;rounded=0;exitX=0.422;exitY=0.058;exitDx=0;exitDy=0;exitPerimeter=0;entryX=1;entryY=1;entryDx=0;entryDy=0;" edge="1" parent="1" source="67p3772FqBmkvbW1Jcc8-6" target="67p3772FqBmkvbW1Jcc8-1">
          <mxGeometry width="50" height="50" relative="1" as="geometry">
            <mxPoint x="360" y="310" as="sourcePoint" />
            <mxPoint x="410" y="260" as="targetPoint" />
          </mxGeometry>
        </mxCell>
        <mxCell id="67p3772FqBmkvbW1Jcc8-18" value="Systems" style="edgeLabel;html=1;align=center;verticalAlign=middle;resizable=0;points=[];" vertex="1" connectable="0" parent="67p3772FqBmkvbW1Jcc8-17">
          <mxGeometry x="0.0209" relative="1" as="geometry">
            <mxPoint as="offset" />
          </mxGeometry>
        </mxCell>
        <mxCell id="67p3772FqBmkvbW1Jcc8-19" value="" style="endArrow=classic;html=1;rounded=0;exitX=1;exitY=0.3333333333333333;exitDx=0;exitDy=0;exitPerimeter=0;entryX=0;entryY=0.25;entryDx=0;entryDy=0;" edge="1" parent="1" source="67p3772FqBmkvbW1Jcc8-7" target="67p3772FqBmkvbW1Jcc8-1">
          <mxGeometry width="50" height="50" relative="1" as="geometry">
            <mxPoint x="360" y="310" as="sourcePoint" />
            <mxPoint x="410" y="260" as="targetPoint" />
          </mxGeometry>
        </mxCell>
        <mxCell id="67p3772FqBmkvbW1Jcc8-20" value="" style="endArrow=classic;html=1;rounded=0;exitX=1;exitY=0.25;exitDx=0;exitDy=0;entryX=0;entryY=0;entryDx=0;entryDy=27.5;entryPerimeter=0;" edge="1" parent="1" source="67p3772FqBmkvbW1Jcc8-1" target="67p3772FqBmkvbW1Jcc8-8">
          <mxGeometry width="50" height="50" relative="1" as="geometry">
            <mxPoint x="360" y="310" as="sourcePoint" />
            <mxPoint x="410" y="260" as="targetPoint" />
          </mxGeometry>
        </mxCell>
        <mxCell id="67p3772FqBmkvbW1Jcc8-21" value="" style="endArrow=classic;html=1;rounded=0;exitX=0;exitY=0;exitDx=0;exitDy=52.5;exitPerimeter=0;entryX=1;entryY=0.75;entryDx=0;entryDy=0;" edge="1" parent="1" source="67p3772FqBmkvbW1Jcc8-8" target="67p3772FqBmkvbW1Jcc8-1">
          <mxGeometry width="50" height="50" relative="1" as="geometry">
            <mxPoint x="360" y="310" as="sourcePoint" />
            <mxPoint x="410" y="260" as="targetPoint" />
          </mxGeometry>
        </mxCell>
        <mxCell id="67p3772FqBmkvbW1Jcc8-22" value="" style="endArrow=classic;html=1;rounded=0;exitX=0;exitY=0.5;exitDx=0;exitDy=0;" edge="1" parent="1" source="67p3772FqBmkvbW1Jcc8-1" target="67p3772FqBmkvbW1Jcc8-7">
          <mxGeometry width="50" height="50" relative="1" as="geometry">
            <mxPoint x="190" y="340" as="sourcePoint" />
            <mxPoint x="240" y="290" as="targetPoint" />
          </mxGeometry>
        </mxCell>
      </root>
    </mxGraphModel>
  </diagram>
</mxfile>
